<!-- public/images/stars.svg -->
<svg xmlns="http://www.w3.org/2000/svg" viewBox="0 0 512 512">
  <defs>
    <radialGradient id="g" cx="50%" cy="50%" r="50%">
      <stop offset="0" stop-color="#fff" stop-opacity="0.9"/>
      <stop offset="1" stop-color="#fff" stop-opacity="0"/>
    </radialGradient>
  </defs>

  <!-- transparent background so page color shows through -->
  <rect width="512" height="512" fill="none"/>

  <!-- tiny crisp stars -->
  <g fill="#ffffff">
    <circle cx="34" cy="40" r="0.9" opacity="0.9"/>
    <circle cx="88" cy="96" r="0.7" opacity="0.7"/>
    <circle cx="140" cy="28" r="0.8" opacity="0.6"/>
    <circle cx="210" cy="64" r="1" opacity="0.85"/>
    <circle cx="312" cy="22" r="0.9" opacity="0.7"/>
    <circle cx="392" cy="80" r="0.8" opacity="0.6"/>
    <circle cx="474" cy="48" r="0.9" opacity="0.75"/>

    <circle cx="24" cy="182" r="0.8" opacity="0.7"/>
    <circle cx="96" cy="154" r="1" opacity="0.85"/>
    <circle cx="168" cy="190" r="0.7" opacity="0.6"/>
    <circle cx="256" cy="128" r="1.1" opacity="0.9"/>
    <circle cx="332" cy="156" r="0.8" opacity="0.7"/>
    <circle cx="420" cy="138" r="0.9" opacity="0.75"/>
    <circle cx="486" cy="172" r="0.7" opacity="0.6"/>

    <circle cx="60" cy="264" r="0.9" opacity="0.8"/>
    <circle cx="128" cy="228" r="0.7" opacity="0.7"/>
    <circle cx="206" cy="272" r="1" opacity="0.85"/>
    <circle cx="292" cy="244" r="0.8" opacity="0.65"/>
    <circle cx="360" cy="288" r="0.9" opacity="0.75"/>
    <circle cx="448" cy="232" r="0.8" opacity="0.6"/>
    <circle cx="492" cy="300" r="0.7" opacity="0.6"/>

    <circle cx="36" cy="348" r="0.8" opacity="0.7"/>
    <circle cx="104" cy="404" r="0.7" opacity="0.6"/>
    <circle cx="172" cy="332" r="0.9" opacity="0.8"/>
    <circle cx="240" cy="380" r="1.1" opacity="0.9"/>
    <circle cx="318" cy="344" r="0.8" opacity="0.65"/>
    <circle cx="396" cy="396" r="0.9" opacity="0.75"/>
    <circle cx="468" cy="360" r="0.8" opacity="0.6"/>

    <circle cx="56" cy="472" r="0.9" opacity="0.8"/>
    <circle cx="132" cy="448" r="0.7" opacity="0.7"/>
    <circle cx="210" cy="492" r="0.8" opacity="0.65"/>
    <circle cx="278" cy="456" r="1" opacity="0.85"/>
    <circle cx="352" cy="484" r="0.7" opacity="0.6"/>
    <circle cx="428" cy="452" r="0.9" opacity="0.75"/>
    <circle cx="492" cy="488" r="0.7" opacity="0.6"/>
  </g>

  <!-- a few soft glows for depth -->
  <g fill="url(#g)">
    <circle cx="90" cy="300" r="2.5"/>
    <circle cx="230" cy="210" r="2.5"/>
    <circle cx="350" cy="110" r="2.5"/>
    <circle cx="420" cy="320" r="2.5"/>
  </g>
</svg>
